<svg width="24" height="24" viewBox="0 0 24 24" fill="none" xmlns="http://www.w3.org/2000/svg">
<path d="M15.125 3.25H13.7675C13.51 2.5225 12.815 2 12 2C11.185 2 10.49 2.5225 10.2313 3.25H8.875C8.53 3.25 8.25 3.53 8.25 3.875V6.375C8.25 6.72 8.53 7 8.875 7H15.125C15.47 7 15.75 6.72 15.75 6.375V3.875C15.75 3.53 15.47 3.25 15.125 3.25Z" fill="#1A1A1A"/>
<path d="M18.25 4.5H17V6.375C17 7.40875 16.1587 8.25 15.125 8.25H8.875C7.84125 8.25 7 7.40875 7 6.375V4.5H5.75C5.06125 4.5 4.5 5.06125 4.5 5.75V20.75C4.5 21.4513 5.04875 22 5.75 22H18.25C18.9513 22 19.5 21.4513 19.5 20.75V5.75C19.5 5.04875 18.9513 4.5 18.25 4.5ZM11.8175 15.5675L9.3175 18.0675C9.195 18.1888 9.035 18.25 8.875 18.25C8.715 18.25 8.555 18.1888 8.4325 18.0675L7.1825 16.8175C6.93875 16.5738 6.93875 16.1775 7.1825 15.9338C7.42625 15.69 7.8225 15.69 8.06625 15.9338L8.875 16.7413L10.9325 14.6838C11.1762 14.44 11.5725 14.44 11.8163 14.6838C12.06 14.9275 12.0613 15.3225 11.8175 15.5675ZM11.8175 10.5675L9.3175 13.0675C9.195 13.1888 9.035 13.25 8.875 13.25C8.715 13.25 8.555 13.1888 8.4325 13.0675L7.1825 11.8175C6.93875 11.5738 6.93875 11.1775 7.1825 10.9337C7.42625 10.69 7.8225 10.69 8.06625 10.9337L8.875 11.7413L10.9325 9.68375C11.1762 9.44 11.5725 9.44 11.8163 9.68375C12.06 9.9275 12.0613 10.3225 11.8175 10.5675ZM16.375 17H13.875C13.53 17 13.25 16.72 13.25 16.375C13.25 16.03 13.53 15.75 13.875 15.75H16.375C16.72 15.75 17 16.03 17 16.375C17 16.72 16.72 17 16.375 17ZM16.375 12H13.875C13.53 12 13.25 11.72 13.25 11.375C13.25 11.03 13.53 10.75 13.875 10.75H16.375C16.72 10.75 17 11.03 17 11.375C17 11.72 16.72 12 16.375 12Z" fill="#1A1A1A"/>
</svg>
