<svg width="19" height="18" viewBox="0 0 19 18" fill="none" xmlns="http://www.w3.org/2000/svg">
<path fill-rule="evenodd" clip-rule="evenodd" d="M7.14485 8.30699C6.7511 8.30699 6.43975 8.61299 6.43975 9C6.43975 9.37801 6.7511 9.69301 7.14485 9.69301H12.6391V13.9951C12.6391 16.2001 10.8168 18.0001 8.5642 18.0001H4.10469C1.8612 18.0001 0.0389404 16.2091 0.0389404 14.0041V4.00493C0.0389404 1.7909 1.87036 -0.00012207 4.11385 -0.00012207H8.58252C10.8168 -0.00012207 12.6391 1.7909 12.6391 3.99593V8.30699H7.14485ZM15.9063 5.88611L18.5344 8.50515C18.6694 8.64015 18.7414 8.81115 18.7414 9.00015C18.7414 9.18016 18.6694 9.36016 18.5344 9.48616L15.9063 12.1052C15.7713 12.2402 15.5913 12.3122 15.4203 12.3122C15.2403 12.3122 15.0603 12.2402 14.9253 12.1052C14.6553 11.8352 14.6553 11.3942 14.9253 11.1242L16.3653 9.69316H12.6393V8.30715H16.3653L14.9253 6.87613C14.6553 6.60612 14.6553 6.16512 14.9253 5.89511C15.1953 5.61611 15.6363 5.61611 15.9063 5.88611Z" fill="#1A1A1A"/>
</svg>
