<svg width="24" height="24" viewBox="0 0 24 24" fill="none" xmlns="http://www.w3.org/2000/svg">
<path d="M18.57 10.5536C18.5922 8.01587 16.3726 5.68939 13.6221 5.36769C13.5674 5.36137 13.5078 5.35175 13.4447 5.34158C13.3085 5.31961 13.1677 5.29703 13.0256 5.29703C12.4619 5.29703 12.3112 5.68263 12.2715 5.91261C12.233 6.13621 12.2698 6.32398 12.3807 6.47094C12.5674 6.71813 12.8959 6.76202 13.1597 6.79718C13.2371 6.80758 13.31 6.81725 13.3711 6.83061C15.8423 7.36832 16.6744 8.2137 17.0811 10.5997C17.091 10.658 17.0955 10.7298 17.1002 10.806C17.118 11.0912 17.1549 11.6846 17.8101 11.6846H17.8101C17.8647 11.6846 17.9233 11.68 17.9843 11.6709C18.5943 11.5807 18.5752 11.0383 18.566 10.7776C18.5635 10.7042 18.561 10.6348 18.5674 10.5886C18.5691 10.577 18.5699 10.5653 18.57 10.5536Z" fill="#1A1A1A"/>
<path d="M12.8656 4.43598C12.9388 4.44112 13.0081 4.44604 13.0658 4.45465C17.1237 5.06234 18.9899 6.93457 19.5071 10.917C19.5159 10.9847 19.5173 11.0673 19.5187 11.1547C19.5239 11.4659 19.5345 12.1132 20.2483 12.1266L20.2705 12.1268C20.4944 12.1268 20.6724 12.0611 20.7998 11.9313C21.022 11.7049 21.0065 11.3687 20.994 11.0984C20.991 11.0321 20.9881 10.9697 20.9888 10.915C21.0404 6.842 17.4198 3.14858 13.2408 3.01124C13.2235 3.01068 13.207 3.01157 13.1903 3.01386C13.1821 3.01504 13.1669 3.01649 13.1408 3.01649C13.0991 3.01649 13.0479 3.01297 12.9935 3.00939C12.9278 3.00503 12.8532 3 12.7777 3C12.1122 3 11.9857 3.46062 11.9695 3.73521C11.9322 4.36979 12.5626 4.41445 12.8656 4.43598Z" fill="#1A1A1A"/>
<path d="M19.3114 16.0641C19.2251 16 19.1359 15.9336 19.0523 15.868C18.6093 15.5208 18.1379 15.2008 17.6821 14.8913C17.5875 14.8271 17.4929 14.7629 17.3986 14.6985C16.8147 14.2991 16.2897 14.105 15.7937 14.105C15.1257 14.105 14.5432 14.4644 14.0625 15.1732C13.8495 15.4874 13.5912 15.6402 13.2727 15.6402C13.0844 15.6402 12.8705 15.5879 12.6369 15.4846C10.7521 14.6523 9.40621 13.3762 8.63657 11.6918C8.26453 10.8776 8.38514 10.3454 9.03991 9.91233C9.41173 9.66659 10.1038 9.2091 10.0548 8.33302C9.99927 7.33816 7.74506 4.34473 6.79528 4.00474C6.39315 3.86074 5.97065 3.8594 5.53723 4.00139C4.44537 4.35882 3.66184 4.98653 3.27114 5.81654C2.89358 6.61855 2.91063 7.56025 3.32045 8.53985C4.50519 11.3721 6.17088 13.8415 8.27142 15.8792C10.3275 17.874 12.8545 19.508 15.7823 20.7356C16.0462 20.8462 16.323 20.9065 16.5252 20.9505C16.5941 20.9656 16.6535 20.9784 16.6969 20.99C16.7207 20.9963 16.7453 20.9997 16.7699 20.9999L16.793 21.0001C16.793 21.0001 16.793 21.0001 16.7931 21.0001C18.1702 21.0001 19.8237 19.7747 20.3315 18.3778C20.7764 17.1545 19.9641 16.5499 19.3114 16.0641Z" fill="#1A1A1A"/>
<path d="M13.4741 7.67145C13.2384 7.67726 12.7477 7.68911 12.5756 8.17573C12.495 8.40313 12.5047 8.60057 12.6043 8.76257C12.7504 9.00026 13.0305 9.0731 13.2852 9.11307C14.2089 9.25741 14.6833 9.75481 14.7782 10.6783C14.8223 11.1089 15.12 11.4096 15.5024 11.4096C15.5306 11.4096 15.5595 11.408 15.5883 11.4046C16.0481 11.3513 16.271 11.0223 16.2509 10.4268C16.2582 9.8054 15.9242 9.09988 15.3562 8.53791C14.7862 7.97421 14.0991 7.65675 13.4741 7.67145Z" fill="#1A1A1A"/>
<circle cx="7" cy="17" r="5" fill="#FCBD0E"/>
<g clip-path="url(#clip0_196_2205)">
<path d="M9.37197 18.4611C9.2681 18.3838 9.12129 18.4054 9.04403 18.5093C9.00154 18.5664 8.95607 18.6224 8.90888 18.6758C8.82315 18.7728 8.83226 18.9209 8.92923 19.0066C8.97383 19.046 9.0292 19.0654 9.08438 19.0654C9.1492 19.0654 9.21375 19.0386 9.26006 18.9862C9.31595 18.923 9.3698 18.8567 9.42012 18.789C9.49738 18.6852 9.47583 18.5384 9.37197 18.4611Z" fill="white"/>
<path d="M9.76386 17.3619C9.63746 17.3344 9.51253 17.4146 9.485 17.5411C9.46985 17.6107 9.45154 17.6804 9.43055 17.7483C9.39234 17.872 9.46162 18.0032 9.58529 18.0414C9.60834 18.0485 9.63164 18.0519 9.65456 18.0519C9.75464 18.0519 9.84731 17.9873 9.87841 17.8867C9.90332 17.8061 9.92505 17.7233 9.94303 17.6408C9.97055 17.5143 9.89034 17.3895 9.76386 17.3619Z" fill="white"/>
<path d="M8.24376 19.2117C8.18153 19.2465 8.1171 19.2789 8.05228 19.3082C7.9343 19.3615 7.88186 19.5003 7.93514 19.6183C7.97428 19.7049 8.05958 19.7562 8.14887 19.7562C8.18112 19.7562 8.2139 19.7495 8.2452 19.7354C8.32211 19.7007 8.39849 19.6622 8.47228 19.621C8.5853 19.5579 8.62577 19.4151 8.56265 19.3021C8.49957 19.1891 8.35679 19.1486 8.24376 19.2117Z" fill="white"/>
<path d="M6.76561 15.125V16.9029L5.90617 17.7624C5.81464 17.8539 5.81464 18.0023 5.90617 18.0938C5.95194 18.1396 6.01191 18.1625 6.07191 18.1625C6.13188 18.1625 6.19187 18.1396 6.23764 18.0938L7.16572 17.1657C7.20967 17.1218 7.23436 17.0622 7.23436 17V15.125C7.23436 14.9956 7.12943 14.8906 6.99998 14.8906C6.87054 14.8906 6.76561 14.9956 6.76561 15.125Z" fill="white"/>
<path d="M9.76562 14.5039C9.63618 14.5039 9.53125 14.6088 9.53125 14.7383V15.3891C8.98572 14.5335 8.03302 14 7 14C6.19867 14 5.44531 14.3121 4.87867 14.8787C4.31206 15.4453 4 16.1987 4 17C4 17.8013 4.31206 18.5547 4.87867 19.1213C5.44531 19.6879 6.19867 20 7 20C7.00198 20 7.00389 19.9998 7.00586 19.9997C7.00783 19.9998 7.00974 20 7.01172 20C7.09619 20 7.18149 19.9964 7.26528 19.9894C7.39427 19.9786 7.49008 19.8653 7.47929 19.7363C7.46847 19.6073 7.3553 19.5115 7.22616 19.5223C7.15533 19.5282 7.08319 19.5312 7.01172 19.5312C7.00974 19.5312 7.00783 19.5315 7.00586 19.5315C7.00389 19.5315 7.00198 19.5312 7 19.5312C5.60426 19.5312 4.46875 18.3957 4.46875 17C4.46875 15.6043 5.60426 14.4688 7 14.4688C7.89951 14.4688 8.72684 14.9482 9.17894 15.7109H8.53449C8.40504 15.7109 8.30011 15.8159 8.30011 15.9453C8.30011 16.0748 8.40504 16.1797 8.53449 16.1797H9.25C9.39273 16.1797 9.52627 16.1396 9.63997 16.0701C9.64728 16.0659 9.65431 16.0614 9.66101 16.0566C9.86499 15.9224 10 15.6916 10 15.4297V14.7383C10 14.6088 9.89507 14.5039 9.76562 14.5039Z" fill="white"/>
</g>
<defs>
<clipPath id="clip0_196_2205">
<rect width="6" height="6" fill="white" transform="translate(4 14)"/>
</clipPath>
</defs>
</svg>
