<svg width="24" height="24" viewBox="0 0 24 24" fill="none" xmlns="http://www.w3.org/2000/svg">
<path d="M17.8401 10.7144C17.8598 8.45861 15.8868 6.39064 13.4419 6.10468C13.3933 6.09906 13.3403 6.09052 13.2842 6.08147C13.1632 6.06194 13.038 6.04187 12.9117 6.04187C12.4107 6.04187 12.2767 6.38463 12.2415 6.58905C12.2072 6.78781 12.2399 6.95471 12.3385 7.08535C12.5044 7.30507 12.7964 7.34408 13.0309 7.37533C13.0997 7.38457 13.1645 7.39317 13.2188 7.40505C15.4154 7.88301 16.1551 8.63446 16.5166 10.7553C16.5254 10.8071 16.5294 10.871 16.5336 10.9387C16.5494 11.1922 16.5822 11.7197 17.1646 11.7197H17.1646C17.2131 11.7197 17.2652 11.7156 17.3194 11.7075C17.8617 11.6273 17.8447 11.1452 17.8365 10.9135C17.8342 10.8483 17.832 10.7866 17.8377 10.7455C17.8392 10.7352 17.84 10.7248 17.8401 10.7144Z" fill="#1A1A1A"/>
<path d="M12.7693 5.27642C12.8343 5.28099 12.8959 5.28536 12.9472 5.29301C16.5543 5.83319 18.2131 7.49738 18.6728 11.0373C18.6806 11.0975 18.6818 11.1709 18.6831 11.2486C18.6877 11.5252 18.6971 12.1005 19.3317 12.1125L19.3514 12.1127C19.5504 12.1127 19.7087 12.0542 19.8219 11.9389C20.0194 11.7377 20.0056 11.4388 19.9945 11.1986C19.9918 11.1397 19.9892 11.0842 19.9899 11.0356C20.0357 7.4151 16.8175 4.13207 13.1028 4.00999C13.0874 4.00949 13.0727 4.01029 13.0579 4.01232C13.0506 4.01337 13.037 4.01466 13.0139 4.01466C12.9768 4.01466 12.9313 4.01153 12.8829 4.00835C12.8245 4.00447 12.7583 4 12.6911 4C12.0996 4 11.9871 4.40944 11.9727 4.65351C11.9396 5.21759 12.4999 5.25729 12.7693 5.27642Z" fill="#1A1A1A"/>
<path d="M18.4989 15.6125C18.4222 15.5554 18.3429 15.4964 18.2687 15.4382C17.8749 15.1296 17.4559 14.8451 17.0507 14.57C16.9666 14.5129 16.8825 14.4558 16.7987 14.3986C16.2797 14.0435 15.813 13.871 15.3721 13.871C14.7783 13.871 14.2606 14.1905 13.8333 14.8205C13.644 15.0998 13.4143 15.2356 13.1313 15.2356C12.9639 15.2356 12.7737 15.1891 12.5661 15.0974C10.8907 14.3575 9.69439 13.2232 9.01027 11.7259C8.67956 11.0023 8.78677 10.5292 9.36879 10.1442C9.69929 9.92579 10.3145 9.51913 10.2709 8.7404C10.2216 7.85608 8.21782 5.19527 7.37357 4.89306C7.01612 4.76506 6.64056 4.76387 6.25531 4.89008C5.28477 5.20779 4.5883 5.76575 4.24101 6.50354C3.9054 7.21643 3.92056 8.0535 4.28484 8.92425C5.33794 11.4418 6.81855 13.6368 8.68568 15.4481C10.5133 17.2212 12.7595 18.6736 15.362 19.7649C15.5966 19.8632 15.8427 19.9168 16.0223 19.9559C16.0836 19.9693 16.1364 19.9807 16.175 19.991C16.1961 19.9966 16.218 19.9997 16.2399 19.9998L16.2604 19.9999C16.2604 19.9999 16.2604 19.9999 16.2605 19.9999C17.4846 19.9999 18.9543 18.9108 19.4057 17.669C19.8012 16.5817 19.0791 16.0443 18.4989 15.6125Z" fill="#1A1A1A"/>
<path d="M13.3102 8.15232C13.1006 8.15749 12.6645 8.16802 12.5115 8.60057C12.4399 8.8027 12.4485 8.97821 12.537 9.12221C12.6669 9.33348 12.9158 9.39823 13.1422 9.43376C13.9633 9.56206 14.385 10.0042 14.4693 10.8251C14.5085 11.2078 14.7732 11.4751 15.113 11.4751C15.1381 11.4751 15.1639 11.4737 15.1894 11.4706C15.5982 11.4233 15.7963 11.1308 15.7784 10.6016C15.7849 10.0492 15.488 9.42203 14.9831 8.9225C14.4765 8.42144 13.8657 8.13925 13.3102 8.15232Z" fill="#1A1A1A"/>
<circle cx="7" cy="17" r="5" fill="#F5432C"/>
<path d="M8.66152 15.3345L5.33374 18.6623" stroke="white" stroke-width="0.8" stroke-linecap="round" stroke-linejoin="round"/>
<path d="M8.6672 18.6664L5.33386 15.3331" stroke="white" stroke-width="0.8" stroke-linecap="round" stroke-linejoin="round"/>
</svg>
