<svg width="24" height="24" viewBox="0 0 24 24" fill="none" xmlns="http://www.w3.org/2000/svg">
<path d="M5.83765 10.8378C5.49441 10.4947 4.93793 10.4946 4.59469 10.8378L3.35173 12.0808C3.00857 12.424 3.00857 12.9806 3.35173 13.3237C3.69489 13.667 4.25145 13.667 4.59469 13.3237L5.83765 12.0808C6.18089 11.7375 6.18081 11.1811 5.83765 10.8378Z" fill="#1A1A1A"/>
<path d="M6.66622 15.3952L8.7378 13.3236C9.08104 12.9803 9.08097 12.4239 8.7378 12.0806C8.39464 11.7375 7.83809 11.7374 7.49485 12.0806L5.42326 14.1522C5.0801 14.4954 5.0801 15.052 5.42326 15.3952C5.7665 15.7384 6.32302 15.7384 6.66622 15.3952Z" fill="#1A1A1A"/>
<path d="M9.56638 14.1522L7.4948 16.2238C7.15164 16.567 7.15164 17.1235 7.4948 17.4667C7.83804 17.8099 8.39459 17.8099 8.73776 17.4667L10.8093 15.3951C11.1526 15.0519 11.1526 14.4954 10.8093 14.1522C10.4662 13.809 9.90962 13.8089 9.56638 14.1522Z" fill="#1A1A1A"/>
<path d="M10.8098 17.0525L9.56682 18.2954C9.22366 18.6386 9.22366 19.1952 9.56682 19.5383C9.91006 19.8816 10.4666 19.8816 10.8098 19.5383L12.0527 18.2954C12.396 17.9521 12.3959 17.3956 12.0527 17.0525C11.7096 16.7092 11.153 16.7092 10.8098 17.0525Z" fill="#1A1A1A"/>
<path d="M13.0888 18.9169L13.0678 18.8959C13.0095 18.974 12.9525 19.0531 12.8816 19.124L11.8458 20.1598L12.8816 21.1956C13.2248 21.5387 13.7814 21.5387 14.1246 21.1956C14.4678 20.8523 14.4678 20.2959 14.1246 19.9526L13.0888 18.9169Z" fill="#1A1A1A"/>
<path d="M2.64864 8.34184C3.17105 8.78535 3.71121 9.24425 3.93952 9.7621C3.95113 9.78835 3.95597 9.81889 3.96628 9.84585C4.76995 9.22316 5.92919 9.27171 6.66657 10.009C6.78782 10.1303 7.07454 10.5364 7.17649 10.8906C7.94867 10.4911 8.92007 10.6053 9.56678 11.252C9.97275 11.6579 10.1703 12.1931 10.1641 12.7263C10.6973 12.7201 11.2324 12.9177 11.6384 13.3236C12.2851 13.9703 12.3993 14.9417 11.9998 15.7139C12.3221 15.8067 12.628 15.9704 12.8813 16.2238C13.2749 16.6173 13.4725 17.1327 13.4786 17.6498L14.9529 19.124C15.2961 19.4672 15.8527 19.4672 16.1959 19.124C16.5391 18.7808 16.5391 18.2242 16.1959 17.8811L13.9171 15.6024C13.6883 15.3735 13.6883 15.0025 13.9171 14.7737C14.146 14.5448 14.5169 14.5448 14.7458 14.7737L17.0245 17.0524C17.3677 17.3956 17.9243 17.3956 18.2674 17.0524C18.6107 16.7092 18.6107 16.1526 18.2674 15.8095L15.9887 13.5307C15.7599 13.3019 15.7599 12.9309 15.9887 12.7021C16.2176 12.4732 16.5885 12.4732 16.8173 12.7021L19.0961 14.9808C19.4393 15.324 19.9959 15.324 20.339 14.9808C20.6823 14.6376 20.6823 14.081 20.339 13.7379L14.7458 8.14457C14.517 7.91575 14.146 7.91575 13.9172 8.14457L11.9684 10.0933C10.9752 11.0865 9.28979 11.2059 8.35616 10.0051L8.35761 10.0037C7.67332 9.13675 7.64785 7.78477 8.53105 6.90165L10.533 4.8996C10.6432 4.78945 10.7705 4.70519 10.8974 4.62117C10.5302 4.57777 10.1898 4.58062 9.88756 4.59218C9.21987 4.62023 8.81183 4.63566 8.28253 4.10637L7.14348 2.96231C6.91462 2.73345 6.5438 2.73345 6.31493 2.96231L2.17165 7.10575C1.94278 7.33462 1.94278 7.70544 2.17165 7.9343C2.38676 8.14942 2.39516 8.12617 2.64864 8.34184Z" fill="#1A1A1A"/>
<path d="M17.685 2.71857C17.4562 2.48974 17.0853 2.48974 16.8564 2.71857L14.7457 4.83008C14.1415 5.43433 13.2916 5.6346 12.5197 5.4389C12.1039 5.33347 11.6647 5.42523 11.3614 5.72858L9.3596 7.73036C8.90198 8.18798 8.90191 8.92996 9.3596 9.38761C9.81729 9.8453 10.5593 9.84523 11.0168 9.38761L13.0885 7.31603C13.7739 6.63061 14.889 6.63061 15.5743 7.31603C16.2621 8.0038 17.3726 8.00376 18.0603 7.31603C18.2923 7.084 18.6569 7.084 18.8889 7.31603C19.1209 7.54806 19.1209 7.91263 18.8889 8.14466C18.4205 8.61313 17.8316 8.87895 17.2219 8.96363L19.3177 11.0594C19.4573 10.3367 19.4682 10.2442 19.7175 9.80198L21.8282 7.69048C22.0571 7.46161 22.057 7.09068 21.8282 6.86185L17.685 2.71857Z" fill="#1A1A1A"/>
</svg>
