<svg width="24" height="24" viewBox="0 0 24 24" fill="none" xmlns="http://www.w3.org/2000/svg">
<path d="M9.91649 6.64848L8.9614 8.86889H3.62268V16.6558H9.91649V6.64848ZM6.2827 15.154H5.11091V13.9822H6.2827V15.154Z" fill="#1A1A1A"/>
<path d="M18.0493 11.7087C15.8709 11.7087 14.0986 13.481 14.0986 15.6594C14.0986 17.8378 15.8709 19.61 18.0493 19.61C20.2277 19.61 21.9999 17.8378 21.9999 15.6594C21.9999 13.481 20.2277 11.7087 18.0493 11.7087ZM17.422 17.5804L15.5503 15.7088L16.3789 14.8802L17.422 15.9233L19.6295 13.7158L20.4581 14.5443L17.422 17.5804Z" fill="#34B86D"/>
<path d="M9.61251 4.38962H3.42255L1.99976 7.69714H8.18979L9.61251 4.38962Z" fill="#1A1A1A"/>
<path d="M17.3825 10.5805V8.86893H12.0438L11.0886 6.64848V16.6559H13.0249C12.9611 16.3335 12.9273 16.0004 12.9273 15.6595C12.9273 13.0611 14.8721 10.9085 17.3825 10.5805Z" fill="#1A1A1A"/>
<path d="M11.3925 4.38962L12.8153 7.69714H19.0052L17.5825 4.38962H11.3925Z" fill="#1A1A1A"/>
</svg>
