<svg width="24" height="24" viewBox="0 0 24 24" fill="none" xmlns="http://www.w3.org/2000/svg">
<path d="M17.8535 6.48047V5.63672C17.8535 4.18283 16.6707 3 15.2168 3H8.74805C7.29416 3 6.11133 4.18283 6.11133 5.63672V6.48047H17.8535Z" fill="#1A1A1A"/>
<path d="M7.16602 14.2148V18.5039V19.418V19.9453C7.16602 20.5278 7.6382 21 8.2207 21H15.7441C16.3266 21 16.7988 20.5278 16.7988 19.9453V19.418V18.5039V14.2148H7.16602ZM13.3887 18.7148H10.5762C10.2849 18.7148 10.0488 18.4787 10.0488 18.1875C10.0488 17.8963 10.2849 17.6602 10.5762 17.6602H13.3887C13.6799 17.6602 13.916 17.8963 13.916 18.1875C13.916 18.4787 13.6799 18.7148 13.3887 18.7148ZM13.3887 16.4648H10.5762C10.2849 16.4648 10.0488 16.2287 10.0488 15.9375C10.0488 15.6463 10.2849 15.4102 10.5762 15.4102H13.3887C13.6799 15.4102 13.916 15.6463 13.916 15.9375C13.916 16.2287 13.6799 16.4648 13.3887 16.4648Z" fill="#1A1A1A"/>
<path d="M18.3457 7.53516H5.6543C4.20041 7.53516 3.01758 8.71799 3.01758 10.1719V14.3906C3.01758 15.8445 4.20041 17.0273 5.6543 17.0273H6.11133V14.2148H5.79492C5.50369 14.2148 5.26758 13.9787 5.26758 13.6875C5.26758 13.3963 5.50369 13.1602 5.79492 13.1602H6.63867H17.3262H18.1699C18.4612 13.1602 18.6973 13.3963 18.6973 13.6875C18.6973 13.9787 18.4612 14.2148 18.1699 14.2148H17.8535V17.0273H18.3457C19.7996 17.0273 20.9824 15.8445 20.9824 14.3906V10.1719C20.9824 8.71799 19.7996 7.53516 18.3457 7.53516ZM7.48242 10.8398H5.79492C5.50369 10.8398 5.26758 10.6037 5.26758 10.3125C5.26758 10.0213 5.50369 9.78516 5.79492 9.78516H7.48242C7.77366 9.78516 8.00977 10.0213 8.00977 10.3125C8.00977 10.6037 7.77366 10.8398 7.48242 10.8398Z" fill="#1A1A1A"/>
</svg>
