<svg width="24" height="24" viewBox="0 0 24 24" fill="none" xmlns="http://www.w3.org/2000/svg">
<path d="M20.329 4.76766L19.0493 4.95052L19.2322 3.67082C19.3117 3.11459 18.6342 2.77462 18.2362 3.17296L15.8885 5.5207C15.7987 5.61049 15.7404 5.72704 15.7225 5.85276L15.4567 7.71329L12.558 10.6119C12.3285 10.5021 12.0746 10.4355 11.8036 10.4355C10.8327 10.4355 10.0428 11.2253 10.0428 12.1963C10.0428 13.1672 10.8327 13.9571 11.8036 13.9571C12.7746 13.9571 13.5644 13.1672 13.5644 12.1963C13.5644 11.9253 13.4978 11.6714 13.388 11.4419L16.2866 8.54326L18.1472 8.27747C18.2729 8.2595 18.3894 8.20125 18.4792 8.11145L20.827 5.76371C21.2237 5.36689 20.8878 4.68937 20.329 4.76766Z" fill="#1A1A1A"/>
<path d="M16.5653 9.92464L14.7059 11.784C14.725 11.919 14.7383 12.056 14.7383 12.1963C14.7383 13.8145 13.4219 15.1309 11.8036 15.1309C10.1854 15.1309 8.86899 13.8145 8.86899 12.1963C8.86899 10.578 10.1854 9.2616 11.8036 9.2616C11.9439 9.2616 12.0808 9.27489 12.2158 9.29402L14.0753 7.43457C13.386 7.10437 12.6176 6.91389 11.8036 6.91389C8.89096 6.91389 6.52124 9.28361 6.52124 12.1963C6.52124 15.109 8.89096 17.4787 11.8036 17.4787C14.7163 17.4787 17.0861 15.109 17.0861 12.1963C17.086 11.3823 16.8956 10.6139 16.5653 9.92464Z" fill="#1A1A1A"/>
<path d="M19.7782 8.47247L19.3092 8.94143C19.0417 9.20912 18.6879 9.38603 18.3132 9.43951L17.6769 9.53046C18.0478 10.3443 18.2599 11.2451 18.2599 12.1963C18.2599 15.7563 15.3637 18.6526 11.8037 18.6526C8.24365 18.6526 5.34738 15.7563 5.34738 12.1963C5.34738 8.6363 8.24369 5.74003 11.8037 5.74003C12.7548 5.74003 13.6557 5.95213 14.4695 6.32308L14.5604 5.68673C14.6139 5.31206 14.7908 4.95823 15.0585 4.69054L15.5274 4.22175C14.3708 3.68008 13.1099 3.39228 11.8036 3.39228C6.94901 3.39228 2.99963 7.3417 2.99963 12.1963C2.99963 17.0509 6.94905 21.0003 11.8037 21.0003C16.6583 21.0003 20.6077 17.0509 20.6077 12.1963C20.6077 10.89 20.3199 9.62904 19.7782 8.47247Z" fill="#1A1A1A"/>
</svg>
