<svg width="24" height="24" viewBox="0 0 24 24" fill="none" xmlns="http://www.w3.org/2000/svg">
<path d="M5.13582 15.465C2.28813 12.6172 2.28819 7.98356 5.13582 5.13581C7.98357 2.28806 12.6172 2.28806 15.4649 5.13581C17.8808 7.55174 18.2467 11.1448 16.5635 13.9507C16.5635 13.9507 16.4426 14.1535 16.6059 14.3167C17.5375 15.2482 20.3323 18.043 20.3323 18.043C21.074 18.7847 21.2505 19.8218 20.5928 20.4796L20.4796 20.5927C19.8218 21.2506 18.7847 21.0741 18.043 20.3324C18.043 20.3324 15.2541 17.5434 14.3245 16.6139C14.1534 16.4427 13.9506 16.5636 13.9506 16.5636C11.1449 18.2467 7.55175 17.8809 5.13582 15.465ZM14.1165 14.1165C16.2207 12.0123 16.2206 8.58859 14.1164 6.48439C12.0122 4.38026 8.58848 4.3802 6.48435 6.48439C4.38015 8.58853 4.38015 12.0123 6.48435 14.1165C8.58854 16.2206 12.0122 16.2206 14.1165 14.1165Z" fill="#1A1A1A"/>
<path d="M13.6506 9.86712C13.7485 9.86712 13.8481 9.84787 13.9441 9.80733C14.3274 9.64509 14.5068 9.20277 14.3445 8.81937C13.3248 6.40953 10.5347 5.27863 8.12488 6.29837C7.74153 6.46061 7.56218 6.90293 7.72442 7.28633C7.88673 7.66974 8.32893 7.84897 8.71245 7.68679C10.3566 6.99107 12.2604 7.76269 12.956 9.40682C13.0778 9.69438 13.3569 9.86712 13.6506 9.86712Z" fill="#1A1A1A"/>
</svg>
