<svg width="24" height="24" viewBox="0 0 24 24" fill="none" xmlns="http://www.w3.org/2000/svg">
<path d="M4.39795 5.988V16.734C4.40006 17.5258 4.71555 18.2846 5.27545 18.8445C5.83535 19.4044 6.59413 19.7199 7.38595 19.722H11.4299C11.4875 19.3066 11.6068 18.9021 11.7839 18.522C12.2685 17.4533 13.1447 16.6114 14.2319 16.17C13.8402 15.8989 13.5202 15.5366 13.2996 15.1143C13.0791 14.692 12.9646 14.2224 12.9659 13.746C12.9667 12.9585 13.2799 12.2036 13.8367 11.6467C14.3935 11.0899 15.1485 10.7768 15.9359 10.776C16.2227 10.7749 16.5079 10.8174 16.7819 10.902C17.2317 11.0351 17.6431 11.2737 17.9819 11.598V5.988C17.9819 5.19555 17.667 4.43559 17.1067 3.87524C16.5463 3.3149 15.7864 3.00007 14.9939 3H7.38595C6.59381 3.00109 5.83444 3.31625 5.27432 3.87637C4.7142 4.43649 4.39904 5.19587 4.39795 5.988ZM8.02194 5.976H14.3579C14.5171 5.976 14.6697 6.03921 14.7822 6.15173C14.8947 6.26425 14.9579 6.41687 14.9579 6.576C14.9579 6.73513 14.8947 6.88774 14.7822 7.00026C14.6697 7.11278 14.5171 7.17599 14.3579 7.17599H8.02194C7.86282 7.17599 7.7102 7.11278 7.59768 7.00026C7.48516 6.88774 7.42195 6.73513 7.42195 6.576C7.42195 6.41687 7.48516 6.26425 7.59768 6.15173C7.7102 6.03921 7.86282 5.976 8.02194 5.976ZM8.02194 9.16799H14.3579C14.5171 9.16799 14.6697 9.23121 14.7822 9.34373C14.8947 9.45625 14.9579 9.60886 14.9579 9.76799C14.9579 9.92712 14.8947 10.0797 14.7822 10.1923C14.6697 10.3048 14.5171 10.368 14.3579 10.368H8.02194C7.86282 10.368 7.7102 10.3048 7.59768 10.1923C7.48516 10.0797 7.42195 9.92712 7.42195 9.76799C7.42195 9.60886 7.48516 9.45625 7.59768 9.34373C7.7102 9.23121 7.86282 9.16799 8.02194 9.16799ZM8.02194 12.354H10.9019C11.0611 12.354 11.2137 12.4172 11.3262 12.5297C11.4387 12.6422 11.5019 12.7949 11.5019 12.954C11.5019 13.1131 11.4387 13.2657 11.3262 13.3783C11.2137 13.4908 11.0611 13.554 10.9019 13.554H8.02194C7.86282 13.554 7.7102 13.4908 7.59768 13.3783C7.48516 13.2657 7.42195 13.1131 7.42195 12.954C7.42195 12.7949 7.48516 12.6422 7.59768 12.5297C7.7102 12.4172 7.86282 12.354 8.02194 12.354Z" fill="#1A1A1A"/>
<path d="M15.936 15.8159C17.0792 15.8159 18.006 14.8891 18.006 13.7459C18.006 12.6027 17.0792 11.6759 15.936 11.6759C14.7927 11.6759 13.866 12.6027 13.866 13.7459C13.866 14.8891 14.7927 15.8159 15.936 15.8159Z" fill="#1A1A1A"/>
<path d="M12.876 20.9998H19.002C19.161 20.9994 19.3133 20.936 19.4257 20.8236C19.5382 20.7112 19.6015 20.5588 19.602 20.3998C19.602 19.4284 19.2161 18.4967 18.5291 17.8097C17.8422 17.1228 16.9105 16.7369 15.939 16.7369C14.9675 16.7369 14.0358 17.1228 13.3489 17.8097C12.6619 18.4967 12.276 19.4284 12.276 20.3998C12.2765 20.5588 12.3398 20.7112 12.4522 20.8236C12.5647 20.936 12.717 20.9994 12.876 20.9998Z" fill="#1A1A1A"/>
</svg>
